# xmcd
# 
# Track frame offsets:
#     150
#     14630
#     26747
#     39321
#     54670
#     71671
#     88221
#     104704
#     125272
#     151322
#     160857
#     175349
# 
# Disc length: 2493
# 
# Revision: 0
# Processed by: cddbd v1.5.2PL0 Copyright (c) Steve Scherf et al.
# Submitted via: fre:ac v1.0.17
# 
DISCID=a209bb0c
DTITLE=Doug Moreland and The Flying Armadillos - Bring Back The Swing
DYEAR=2015
DGENRE=Country
TTITLE0=Bring Back the Swing
TTITLE1=Deep Dark Blue
TTITLE2=Cotton Pickin' Time
TTITLE3=Down In Texas
TTITLE4=Rodeo Clown
TTITLE5=Daddy In The Caddy
TTITLE6=Bread And Circus
TTITLE7=El Muerto
TTITLE8=Copybook Headings
TTITLE9=Taxes
TTITLE10=Living Water
TTITLE11=Texas Dust
EXTD=
EXTT0=
EXTT1=
EXTT2=
EXTT3=
EXTT4=
EXTT5=
EXTT6=
EXTT7=
EXTT8=
EXTT9=
EXTT10=
EXTT11=
PLAYORDER=
